<?xml version="1.0" encoding="UTF-8"?>
<svg id="Capa_1" data-name="Capa 1" xmlns="http://www.w3.org/2000/svg" xmlns:xlink="http://www.w3.org/1999/xlink" viewBox="0 0 3487.65 1000">
  <defs>
    <style>
      .cls-1 {
        fill: url(#Degradado_sin_nombre_23-17);
      }

      .cls-1, .cls-2, .cls-3, .cls-4, .cls-5, .cls-6, .cls-7, .cls-8, .cls-9, .cls-10, .cls-11, .cls-12, .cls-13, .cls-14, .cls-15, .cls-16, .cls-17, .cls-18, .cls-19 {
        stroke-width: 0px;
      }

      .cls-2 {
        fill: url(#Degradado_sin_nombre_23-13);
      }

      .cls-3 {
        fill: url(#Degradado_sin_nombre_23-5);
      }

      .cls-4 {
        fill: url(#Degradado_sin_nombre_23-10);
      }

      .cls-5 {
        fill: url(#Degradado_sin_nombre_23-7);
      }

      .cls-6 {
        fill: url(#Degradado_sin_nombre_23-14);
      }

      .cls-7 {
        fill: url(#Degradado_sin_nombre_23-8);
      }

      .cls-8 {
        fill: url(#Degradado_sin_nombre_23-2);
      }

      .cls-9 {
        fill: url(#Degradado_sin_nombre_23-4);
      }

      .cls-10 {
        fill: url(#Degradado_sin_nombre_23-15);
      }

      .cls-11 {
        fill: url(#Degradado_sin_nombre_23-9);
      }

      .cls-12 {
        fill: url(#Degradado_sin_nombre_23-6);
      }

      .cls-13 {
        fill: url(#Degradado_sin_nombre_23-11);
      }

      .cls-20 {
        fill: #54c;
        font-family: Comfortaa-SemiBold, Comfortaa;
        font-size: 511.92px;
        font-variation-settings: 'wght' 600;
        font-weight: 600;
      }

      .cls-14 {
        fill: url(#Degradado_sin_nombre_23-16);
      }

      .cls-15 {
        fill: #fff;
      }

      .cls-16 {
        fill: url(#Degradado_sin_nombre_23);
      }

      .cls-17 {
        fill: url(#Degradado_sin_nombre_23-12);
      }

      .cls-18 {
        fill: url(#Degradado_sin_nombre_23-3);
      }

      .cls-19 {
        fill: url(#Degradado_sin_nombre_5);
      }
    </style>
    <linearGradient id="Degradado_sin_nombre_23" data-name="Degradado sin nombre 23" x1="207.35" y1="726.25" x2="1271.34" y2="516.55" gradientUnits="userSpaceOnUse">
      <stop offset=".06" stop-color="#76e5a3"/>
      <stop offset=".68" stop-color="#7c7ce8"/>
      <stop offset="1" stop-color="#54c"/>
    </linearGradient>
    <linearGradient id="Degradado_sin_nombre_23-2" data-name="Degradado sin nombre 23" x1="116.21" y1="263.79" x2="1180.19" y2="54.09" xlink:href="#Degradado_sin_nombre_23"/>
    <linearGradient id="Degradado_sin_nombre_23-3" data-name="Degradado sin nombre 23" x1="117.72" y1="271.48" x2="1181.7" y2="61.78" xlink:href="#Degradado_sin_nombre_23"/>
    <linearGradient id="Degradado_sin_nombre_23-4" data-name="Degradado sin nombre 23" x1="121.93" y1="292.82" x2="1185.91" y2="83.11" xlink:href="#Degradado_sin_nombre_23"/>
    <linearGradient id="Degradado_sin_nombre_23-5" data-name="Degradado sin nombre 23" x1="124.95" y1="308.14" x2="1188.93" y2="98.44" xlink:href="#Degradado_sin_nombre_23"/>
    <linearGradient id="Degradado_sin_nombre_23-6" data-name="Degradado sin nombre 23" x1="209.56" y1="737.47" x2="1273.55" y2="527.77" xlink:href="#Degradado_sin_nombre_23"/>
    <linearGradient id="Degradado_sin_nombre_23-7" data-name="Degradado sin nombre 23" x1="123.43" y1="300.42" x2="1187.41" y2="90.72" xlink:href="#Degradado_sin_nombre_23"/>
    <linearGradient id="Degradado_sin_nombre_23-8" data-name="Degradado sin nombre 23" x1="102.01" y1="191.79" x2="1166" y2="-17.92" xlink:href="#Degradado_sin_nombre_23"/>
    <linearGradient id="Degradado_sin_nombre_23-9" data-name="Degradado sin nombre 23" x1="220.72" y1="794.09" x2="1284.71" y2="584.38" xlink:href="#Degradado_sin_nombre_23"/>
    <linearGradient id="Degradado_sin_nombre_23-10" data-name="Degradado sin nombre 23" x1="250.41" y1="944.72" x2="1314.39" y2="735.02" xlink:href="#Degradado_sin_nombre_23"/>
    <linearGradient id="Degradado_sin_nombre_23-11" data-name="Degradado sin nombre 23" x1="187.81" y1="627.07" x2="1251.79" y2="417.37" xlink:href="#Degradado_sin_nombre_23"/>
    <linearGradient id="Degradado_sin_nombre_23-12" data-name="Degradado sin nombre 23" x1="248.33" y1="934.14" x2="1312.31" y2="724.44" xlink:href="#Degradado_sin_nombre_23"/>
    <linearGradient id="Degradado_sin_nombre_23-13" data-name="Degradado sin nombre 23" x1="119.07" y1="278.33" x2="1183.05" y2="68.63" xlink:href="#Degradado_sin_nombre_23"/>
    <linearGradient id="Degradado_sin_nombre_23-14" data-name="Degradado sin nombre 23" x1="251.81" y1="951.84" x2="1315.8" y2="742.13" xlink:href="#Degradado_sin_nombre_23"/>
    <linearGradient id="Degradado_sin_nombre_23-15" data-name="Degradado sin nombre 23" x1="116.42" y1="264.9" x2="1180.41" y2="55.19" xlink:href="#Degradado_sin_nombre_23"/>
    <linearGradient id="Degradado_sin_nombre_23-16" data-name="Degradado sin nombre 23" x1="234.95" y1="866.25" x2="1298.93" y2="656.55" xlink:href="#Degradado_sin_nombre_23"/>
    <linearGradient id="Degradado_sin_nombre_23-17" data-name="Degradado sin nombre 23" x1="120.47" y1="285.44" x2="1184.46" y2="75.74" xlink:href="#Degradado_sin_nombre_23"/>
    <linearGradient id="Degradado_sin_nombre_5" data-name="Degradado sin nombre 5" x1="248.67" y1="771.47" x2="1201.4" y2="771.47" gradientUnits="userSpaceOnUse">
      <stop offset=".06" stop-color="#76e5a3"/>
      <stop offset=".59" stop-color="#7c7ce8"/>
      <stop offset="1" stop-color="#54c"/>
    </linearGradient>
  </defs>
  <text class="cls-20" transform="translate(1435.36 657.3)"><tspan x="0" y="0">ahead</tspan></text>
  <path class="cls-16" d="M1243.28,519.54c.19,1.66.35,3.32.52,4.98-.17-1.66-.33-3.32-.52-4.98Z"/>
  <path class="cls-8" d="M528.94,180.12c17.35,25.06,33.73,48.72,66.66,65.3,14.89,7.49,36.51,12.25,52.49,3.11,10.76-6.16,18.5-18.1,26.7-30.73,1.15-1.78,2.3-3.55,3.45-5.3,1.03-1.51,22.1-31.81,80.19-74.17,38.67-28.21,91.83-36.69,139.68-37.25,3.76,1.34,7.49,2.72,11.21,4.14-63.32-24.14-132.61-37.49-205.26-37.49-83.6,0-162.78,17.64-233.5,49.12,27.15,18.22,43.01,41.05,58.39,63.27ZM608.86,156.47c19,0,34.4,15.4,34.4,34.4s-15.4,34.4-34.4,34.4-34.4-15.4-34.4-34.4,15.4-34.4,34.4-34.4Z"/>
  <path class="cls-18" d="M921.41,109.98c3.37,1.37,6.72,2.78,10.05,4.21-3.33-1.44-6.68-2.84-10.05-4.21Z"/>
  <path class="cls-9" d="M956.21,125.59c2.69,1.32,5.38,2.65,8.05,4.01-2.67-1.36-5.36-2.69-8.05-4.01Z"/>
  <path class="cls-3" d="M978.45,137.12c2.49,1.36,4.98,2.72,7.44,4.12-2.46-1.4-4.95-2.76-7.44-4.12Z"/>
  <path class="cls-12" d="M1244.44,531.28c.13,1.46.26,2.92.37,4.38-.11-1.46-.24-2.92-.37-4.38Z"/>
  <path class="cls-5" d="M967.58,131.33c2.52,1.31,5.03,2.61,7.52,3.95-2.49-1.34-5.01-2.65-7.52-3.95Z"/>
  <path class="cls-7" d="M453.48,124.81c5.64-2.74,11.32-5.4,17.07-7.96-5.75,2.56-11.43,5.22-17.07,7.96Z"/>
  <path class="cls-11" d="M355.51,719.23c-37.46-1.22-65.77,9.56-86.58,32.84-8.21,9.19-14.75,19.8-19.98,31.27,18.28,9.04,38.77,14.05,60.21,14.05,53.47-.01,106.94-.02,160.41-.03-8.91,0-17.81,0-26.72,0-9.49-48.21-30.62-76.33-87.34-78.13Z"/>
  <path class="cls-4" d="M1207.25,753.13c-1.06,2.26-2.13,4.46-3.2,6.64,1.07-2.17,2.14-4.38,3.2-6.64Z"/>
  <path class="cls-13" d="M1246.28,572.83c0-8.82-.25-17.58-.73-26.29-47.54-19.04-99.76-28.39-150.31-37.42-47.95-8.56-97.53-17.42-144.56-34.53-56.32-20.49-94.93-50.1-114.75-88.04-4.22-8.08-1.09-18.05,6.98-22.27,8.08-4.23,18.05-1.09,22.27,6.98,15.88,30.4,48.44,54.72,96.78,72.31,44.35,16.13,92.51,24.73,139.08,33.05,46.83,8.36,95.05,16.98,141.06,33.31,0,.03,0,.06.01.09-14.7-110.46-67.69-209.87-146.21-286.33-9.84,4.56-19.73,10.3-30.14,16.58-43.39,26.15-90.81,41.44-153.76,49.57-.84.11-1.68.16-2.51.16-8.79,0-16.46-5.96-17.71-14.22-1.37-9.03,5.45-17.37,15.25-18.63,58.24-7.52,99.84-20.83,139.12-44.5,7.83-4.72,15.43-9.18,23.07-13.22-25.64-21.78-53.54-41.29-83.32-58.2-35.56-6.03-147.12-20.38-207.35,23.55-51.26,37.39-70.88,64.05-72.14,65.81-1.07,1.62-2.12,3.25-3.19,4.89-9.53,14.69-20.33,31.33-38.14,41.53-11.14,6.37-24.1,9.55-37.81,9.55-15.28,0-31.48-3.95-47.08-11.8-40.59-20.43-61.07-50.02-79.15-76.13-16.78-24.24-32.63-47.14-63.36-62.67-1.04-.53-2.1-1.02-3.16-1.51,5.4-2.89,10.87-5.66,16.39-8.38-136.38,67.2-238.28,186.97-274.59,330.36,1.02-4.02,2.09-8.03,3.21-12.01,4.82-3.22,9.69-6.38,14.65-9.41,76.61-46.76,168.69-66.08,259.29-54.4,32.8,4.23,101.06,13.05,104.71,59.24,1.57,19.89-4.77,36.97-18.33,49.4-38.25,35.06-123.87,25.54-184.94,15.32-8.99-1.5-15.06-10.01-13.55-19,1.5-8.99,10.02-15.06,19-13.55,104.48,17.47,143.14,5.77,157.2-7.1,3.8-3.49,8.74-9.61,7.73-22.47-1.02-12.93-26.6-22.73-76.03-29.1-83.16-10.72-167.65,6.97-237.88,49.83-14.82,9.05-29.04,19.23-42.84,30.11-4.4,25.91-6.71,52.48-6.71,79.54,0,41.05,7.31,83.08,7.31,83.08,2.35,13.67,5.16,26.71,8.3,39.07,7.14,28.13,22.78,52.31,43.74,70.1,6.15-12.66,13.76-24.5,23.14-35,27.33-30.59,65.13-45.35,112.24-43.84,82.7,2.62,109.49,52.13,119.89,111.11,30.15,0,60.29-.01,90.44-.02l41.24-33.38,58.99,21.42,64.44-33.78,70.18,59.43,46.83-168.29,76.51,280.09h41.02l62.6-153.56c-3.21-12.46-6.95-29.96-8.95-51.19-3.75-39.73-4.18-81.25,16.08-121.45,12.52-24.83,37.56-50.8,70.27-49,30.27,1.6,55.3,25.84,70.48,68.24,6.14,17.16,11.16,35.08,16.02,52.41,6.67,23.81,13.18,46.93,22.23,67.79,9.33-22.35,17.81-48.12,23.61-77.13,0,0,7.85-42.5,7.85-86.11ZM1049.09,412.68c4.55-18.45,23.19-29.71,41.64-25.16,18.45,4.55,29.71,23.19,25.16,41.64-4.55,18.44-23.2,29.71-41.64,25.15-18.44-4.55-29.71-23.19-25.15-41.64ZM369.34,349.7c-19,0-34.4-15.4-34.4-34.4s15.4-34.4,34.4-34.4,34.4,15.4,34.4,34.4-15.4,34.4-34.4,34.4ZM344.96,664.37c-19,0-34.4-15.4-34.4-34.4s15.4-34.4,34.4-34.4,34.4,15.4,34.4,34.4-15.4,34.4-34.4,34.4ZM643.26,443.62c19,0,34.4,15.4,34.4,34.4s-15.4,34.4-34.4,34.4-34.4-15.4-34.4-34.4,15.4-34.4,34.4-34.4ZM804.6,552.83c-2.26,8.83-11.24,14.14-20.08,11.9-24.61-6.29-49.78-9.13-74.91-8.55-29.15.73-71.18,9.52-94.58,27.12-37.3,28.06-58.34,56.25-47.97,110.02,1.72,8.95-4.13,17.6-13.08,19.33-1.05.2-2.11.3-3.14.3-7.75,0-14.66-5.49-16.19-13.38-14.41-74.73,22.52-114.04,60.54-142.64,29.36-22.08,78.21-32.86,113.6-33.73,28.13-.73,56.35,2.52,83.9,9.57,8.83,2.26,14.16,11.25,11.9,20.08Z"/>
  <path class="cls-17" d="M1214.81,736.08c-2.4,5.76-4.86,11.29-7.35,16.59,2.49-5.3,4.95-10.83,7.35-16.59Z"/>
  <path class="cls-2" d="M933.06,114.89c3.14,1.36,6.27,2.75,9.38,4.17-3.11-1.42-6.24-2.81-9.38-4.17Z"/>
  <path class="cls-6" d="M1203.28,761.32c-1.12,2.26-2.25,4.48-3.37,6.64,1.12-2.16,2.25-4.38,3.37-6.64Z"/>
  <path class="cls-10" d="M909.76,105.38c3.57,1.37,7.13,2.77,10.67,4.2-3.54-1.43-7.09-2.84-10.67-4.2Z"/>
  <path class="cls-14" d="M1160.81,677.18c-4.7-16.78-9.56-34.13-15.31-50.18-4.85-13.56-18.58-45.22-41.15-46.41-16.86-.81-31.59,16.09-39.06,30.9-14.44,28.64-18.65,61.97-12.89,101.87.31,2.15,1.86,11.23,3.53,23.94,1.25,9.56,2.12,17.54,2.67,23.12,17.01,14.9,42.69,31.98,76.98,38.81.17.04.35.07.52.1,25.72,5.03,51.61-7.94,63.72-31.18,0,0,0,0,0,0-.95,1.82-2.01,3.55-3.12,5.24-17.18-29.48-26.65-63.21-35.89-96.19Z"/>
  <path class="cls-1" d="M944.67,120.1c2.91,1.34,5.82,2.71,8.7,4.1-2.88-1.39-5.79-2.75-8.7-4.1Z"/>
  <path class="cls-15" d="M608.86,225.27c19,0,34.4-15.4,34.4-34.4s-15.4-34.4-34.4-34.4-34.4,15.4-34.4,34.4,15.4,34.4,34.4,34.4Z"/>
  <path class="cls-15" d="M907.03,257.17c-9.8,1.27-16.62,9.61-15.25,18.63,1.26,8.25,8.93,14.22,17.71,14.22.83,0,1.67-.05,2.51-.16,62.95-8.13,110.37-23.42,153.76-49.57,10.42-6.28,20.3-12.02,30.14-16.58-8.59-8.37-17.49-16.46-26.68-24.26-7.64,4.04-15.24,8.5-23.07,13.22-39.27,23.67-80.88,36.98-139.12,44.5Z"/>
  <path class="cls-15" d="M975.1,135.28c1.12.61,2.23,1.23,3.35,1.85-1.12-.61-2.23-1.24-3.35-1.85Z"/>
  <path class="cls-15" d="M942.44,119.06c.74.34,1.49.69,2.23,1.03-.74-.34-1.48-.69-2.23-1.03Z"/>
  <path class="cls-15" d="M964.26,129.6c1.11.57,2.21,1.16,3.32,1.73-1.11-.57-2.21-1.16-3.32-1.73Z"/>
  <path class="cls-15" d="M953.37,124.19c.95.46,1.89.93,2.84,1.39-.95-.46-1.89-.94-2.84-1.39Z"/>
  <polygon class="cls-15" points="985.91 141.25 985.9 141.25 985.91 141.25 985.91 141.25"/>
  <polygon class="cls-15" points="470.56 116.85 470.55 116.85 470.56 116.85 470.56 116.85"/>
  <path class="cls-15" d="M909.32,105.21l.45.17c-.15-.06-.3-.11-.45-.17Z"/>
  <path class="cls-15" d="M920.43,109.58c.33.13.65.27.98.4-.33-.13-.65-.27-.98-.4Z"/>
  <path class="cls-15" d="M450.92,126.07c.85-.42,1.71-.84,2.56-1.26-.86.42-1.71.84-2.56,1.26Z"/>
  <path class="cls-15" d="M931.46,114.19c.54.23,1.07.46,1.6.7-.53-.23-1.07-.47-1.6-.7Z"/>
  <path class="cls-15" d="M437.69,135.96c30.73,15.54,46.58,38.43,63.36,62.67,18.08,26.11,38.56,55.7,79.15,76.13,15.6,7.85,31.8,11.8,47.08,11.8,13.7,0,26.67-3.17,37.81-9.55,17.82-10.2,28.62-26.85,38.14-41.53,1.06-1.64,2.12-3.27,3.19-4.89,1.26-1.76,20.88-28.42,72.14-65.81,60.23-43.92,171.79-29.57,207.35-23.55,0,0,0,0,0,0-2.46-1.4-4.95-2.76-7.44-4.12-1.12-.61-2.23-1.24-3.35-1.85-2.49-1.34-5.01-2.65-7.52-3.95-1.11-.58-2.21-1.16-3.32-1.73-2.67-1.36-5.36-2.69-8.05-4.01-.95-.46-1.89-.94-2.84-1.39-2.88-1.39-5.79-2.75-8.7-4.1-.74-.34-1.49-.69-2.23-1.03-3.11-1.42-6.24-2.81-9.38-4.17-.53-.23-1.07-.47-1.6-.7-3.33-1.43-6.68-2.84-10.05-4.21-.33-.13-.65-.27-.98-.4-3.54-1.43-7.09-2.84-10.67-4.2l-.45-.17c-3.72-1.42-7.45-2.8-11.21-4.14-47.85.57-101.01,9.05-139.68,37.25-58.08,42.36-79.16,72.66-80.19,74.17-1.15,1.75-2.3,3.52-3.45,5.3-8.2,12.64-15.94,24.57-26.7,30.73-15.98,9.14-37.59,4.38-52.49-3.11-32.93-16.57-49.31-40.24-66.66-65.3-15.38-22.21-31.24-45.04-58.39-63.27,0,0,0,0,0,0-5.75,2.56-11.43,5.23-17.07,7.96-.86.42-1.71.84-2.56,1.26-5.51,2.71-10.99,5.49-16.39,8.38,1.06.5,2.12.99,3.16,1.51Z"/>
  <path class="cls-15" d="M476.44,797.35h0c-2.29,0-4.59,0-6.88,0,2.29,0,4.59,0,6.88,0Z"/>
  <path class="cls-15" d="M449.25,413.35c49.43,6.38,75.01,16.17,76.03,29.1,1.02,12.86-3.92,18.99-7.73,22.47-14.05,12.88-52.72,24.57-157.2,7.1-8.98-1.51-17.49,4.57-19,13.55-1.5,8.99,4.57,17.49,13.55,19,61.08,10.21,146.7,19.74,184.94-15.32,13.56-12.43,19.9-29.51,18.33-49.4-3.65-46.2-71.9-55.01-104.71-59.24-90.6-11.68-182.68,7.63-259.29,54.4-4.96,3.03-9.83,6.19-14.65,9.41-1.12,3.99-2.19,7.99-3.21,12.01,0,.02,0,.03-.01.05-3.06,12.1-5.66,24.37-7.77,36.8,0,0,0,0,0,0,13.79-10.87,28.01-21.06,42.84-30.11,70.23-42.86,154.71-60.55,237.88-49.83Z"/>
  <path class="cls-15" d="M643.26,512.42c19,0,34.4-15.4,34.4-34.4s-15.4-34.4-34.4-34.4-34.4,15.4-34.4,34.4,15.4,34.4,34.4,34.4Z"/>
  <path class="cls-15" d="M1245.55,546.54c-.2-3.64-.46-7.27-.74-10.88.28,3.62.54,7.24.74,10.88h0Z"/>
  <path class="cls-15" d="M1243.8,524.52c.23,2.25.45,4.5.64,6.76-.2-2.26-.41-4.51-.64-6.76Z"/>
  <path class="cls-15" d="M1242.11,510.04c.42,3.16.81,6.32,1.16,9.5-.36-3.17-.74-6.34-1.16-9.5Z"/>
  <path class="cls-15" d="M1101.04,476.63c-46.57-8.32-94.73-16.91-139.08-33.05-48.34-17.58-80.89-41.91-96.78-72.31-4.22-8.08-14.19-11.21-22.27-6.98-8.08,4.22-11.2,14.19-6.98,22.27,19.82,37.93,58.43,67.55,114.75,88.04,47.03,17.11,96.61,25.96,144.56,34.53,50.55,9.03,102.78,18.38,150.31,37.42-.2-3.64-.46-7.27-.74-10.88-.11-1.46-.24-2.92-.37-4.38-.2-2.26-.42-4.51-.64-6.76-.17-1.66-.33-3.32-.52-4.98-.36-3.17-.74-6.34-1.16-9.5,0-.03,0-.06-.01-.09-46-16.33-94.23-24.95-141.06-33.31Z"/>
  <path class="cls-15" d="M344.96,595.57c-19,0-34.4,15.4-34.4,34.4s15.4,34.4,34.4,34.4,34.4-15.4,34.4-34.4-15.4-34.4-34.4-34.4Z"/>
  <path class="cls-15" d="M792.7,532.75c-27.55-7.04-55.77-10.3-83.9-9.57-35.39.88-84.24,11.65-113.6,33.73-38.02,28.6-74.95,67.91-60.54,142.64,1.52,7.9,8.43,13.38,16.19,13.38,1.03,0,2.09-.1,3.14-.3,8.95-1.72,14.8-10.38,13.08-19.33-10.37-53.77,10.67-81.96,47.97-110.02,23.4-17.6,65.43-26.39,94.58-27.12,25.13-.58,50.3,2.26,74.91,8.55,8.83,2.24,17.82-3.07,20.08-11.9,2.26-8.83-3.07-17.82-11.9-20.08Z"/>
  <path class="cls-15" d="M1204.05,759.77c-.25.52-.51,1.04-.77,1.55.26-.51.51-1.03.77-1.55Z"/>
  <path class="cls-15" d="M1207.46,752.67c-.07.16-.15.31-.22.46.07-.15.15-.31.22-.46Z"/>
  <path class="cls-15" d="M1214.82,736.07h0s0,0,0,.01c0,0,0,0,0-.01Z"/>
  <path class="cls-15" d="M1039.95,741.64l-11.26,27.63c.18.69.36,1.43.53,2.09,3.07-8.33,6.14-16.67,9.21-25,2.84,2.63,5.89,5.31,9.16,8.02,3.86,3.2,7.64,6.12,11.28,8.77-.08-.82-.17-1.75-.27-2.73-8.28-7.25-14.53-13.99-18.65-18.77Z"/>
  <path class="cls-15" d="M1199.83,768.13c.03-.05.06-.11.08-.16-.03.06-.06.12-.09.17,0,0,0,0,0,0Z"/>
  <path class="cls-15" d="M1074.24,454.32c18.44,4.55,37.09-6.71,41.64-25.15,4.55-18.45-6.71-37.09-25.16-41.64-18.44-4.55-37.09,6.71-41.64,25.16-4.55,18.44,6.71,37.09,25.15,41.64Z"/>
  <path class="cls-15" d="M369.34,280.9c-19,0-34.4,15.4-34.4,34.4s15.4,34.4,34.4,34.4,34.4-15.4,34.4-34.4-15.4-34.4-34.4-34.4Z"/>
  <path class="cls-19" d="M949.35,932.28c-1.12,0-2.25-.04-3.4-.13-13.63-1.03-23.46-8.31-25.41-18.67l-71.97-270.76-23.95,150.22c-1.99,9.67-10.54,16.42-22.88,18.08-11.25,1.51-24.97-1.61-31.2-11.81l-37.33-47.58c-.67-.01-.97-.02-1.65-.03l-43.79,51.81c-4.06,5.42-11.01,8.82-19.25,9.36-9.2.62-17.7-2.44-22.73-8.14l-35.89-40.66c-.54-.07-1.22-.07-1.78,0l-20.31,24.66c-4.5,5.46-12.32,8.72-20.93,8.72l-307.26-.1c-1.72,0-3.39-.71-4.6-1.94-6.3-6.44-6.85-9.93-6.07-11.96,1.18-3.08,5.68-3.44,6.84-8.04.48-1.9.63-5.46,1.22-5.47h0l309.87.1c.33,0,.62-.02.85-.06l20.31-24.65c4.45-5.4,11.86-8.57,20.35-8.72,8.63-.23,16.34,2.85,21.08,8.21l35.89,40.66c.53.08,1.21.08,1.76,0l43.79-51.81c4.19-5.61,11.41-9.02,19.98-9.4,9.29-.39,17.75,2.89,22.55,8.83l39.72,50.62c1.32.39,3.48.47,5.18.22l24.96-156.64.14-.57c2.38-9.55,11.88-15.82,24.21-15.96,12.63-.16,22.28,5.97,24.9,15.57l74.01,278.41c1.65.29,3.88.28,5.42-.04l62.2-172.28c2.8-7.83,10.6-13.11,20.85-14.08,7.99-.77,18.02,1.15,24.01,8.35,11.28,8.24,29.96,21.03,54.76,33.89,32.49,16.84,59.9,25.73,58.51,32.28-1.05,4.97-18.23,6.51-22.19,6.86-5.75.51-10.59.15-14.02-.3-11.7-2.65-25.65-6.92-40.61-13.93-26.09-12.23-44.75-27.9-56.75-39.88-.03,0-.06,0-.09,0-.03,0-.06,0-.09,0l-61.44,170.19c-3.25,10.18-14.12,16.59-27.77,16.59ZM1039.97,741.59l-.02.05s.01-.03.02-.05Z"/>
  <path class="cls-15" d="M1176.57,615.87c-15.19-42.4-40.22-66.64-70.48-68.24-32.71-1.8-57.76,24.18-70.27,49-20.26,40.2-19.83,81.72-16.08,121.45.95,10.07,1.22,23.37,6,38.73,1.6,5.15,3.24,9.3,4.4,12.02,2.87-7.78,5.73-15.55,8.6-23.33,2.48,2.8,5.42,5.81,8.85,8.86,3.05,2.7,6.01,5,8.78,6.96.25-5.25.42-13.69-.43-24.04-1.02-12.35-3.14-21.25-3.53-23.94-5.76-39.9-1.55-73.23,12.89-101.87,7.47-14.81,22.19-31.71,39.06-30.9,22.57,1.2,36.3,32.86,41.15,46.41,5.75,16.05,10.61,33.4,15.31,50.18,9.24,32.98,18.72,66.72,35.89,96.19,1.11-1.69,2.17-3.42,3.12-5.24.03-.06.06-.11.09-.17,1.12-2.16,2.25-4.38,3.37-6.64.26-.51.51-1.03.77-1.55,1.07-2.17,2.14-4.38,3.2-6.64.07-.15.15-.31.22-.46,2.49-5.3,4.95-10.83,7.35-16.59,0,0,0,0,0-.01-9.06-20.86-15.56-43.98-22.23-67.79-4.86-17.33-9.88-35.25-16.02-52.41Z"/>
  <path class="cls-15" d="M356.55,686.24c-47.1-1.51-84.91,13.25-112.24,43.84-9.38,10.5-16.99,22.34-23.14,35,8.46,7.18,17.78,13.32,27.77,18.26,5.23-11.46,11.77-22.08,19.98-31.27,20.81-23.29,49.12-34.06,86.58-32.84,56.72,1.8,77.85,29.93,87.34,78.13,8.91,0,17.81,0,26.72,0,2.29,0,4.59,0,6.88,0-10.4-58.98-37.19-108.49-119.89-111.11Z"/>
</svg>